<svg width="682" height="510" viewBox="0 0 682 510" fill="none" xmlns="http://www.w3.org/2000/svg">
<g clip-path="url(#clip0_1:2)">
<path d="M163.465 329.312C169.411 330.138 179.442 329.693 190.922 328.59C222.139 325.594 264.107 317.781 264.107 317.781C264.107 317.781 482.279 288.733 628.437 187.524C628.437 187.524 649.12 170.17 623.847 158.418C619.972 156.684 615.952 155.295 611.832 154.267L611.51 154.06C608.547 152.32 605.434 150.848 602.209 149.663C592.714 146.1 577.271 142.792 560.801 149.419L153.896 309.831C153.896 309.831 141.335 326.219 163.465 329.312Z" fill="#3F3D56"/>
<path d="M240.752 280.019L138.754 236.648L101.307 251.885L153.896 309.831C153.896 309.831 242.151 291.284 240.752 280.019Z" fill="#3F3D56"/>
<path d="M454.748 193.368L268.073 182.461L241.017 194.584L328.284 212.973L359.187 235.337L454.748 193.368Z" fill="#3F3D56"/>
<path d="M190.922 328.59C222.139 325.594 264.107 317.781 264.107 317.781C264.107 317.781 482.279 288.733 628.437 187.524C628.437 187.524 649.12 170.17 623.847 158.418L623.841 158.739C623.841 158.739 594.305 189.74 433 245.478L190.922 328.59Z" fill="#6C63FF"/>
<path d="M218.9 321.06L147.28 370.36L127.046 372.485L166.355 326.844C166.355 326.844 220.596 302.27 218.9 321.06Z" fill="#3F3D56"/>
<path d="M596.076 168.401C599.841 167.643 607.062 159.471 611.482 154.066C608.519 152.326 605.407 150.854 602.182 149.669C598.595 153.918 592.098 160.946 587.788 161.669C581.576 162.761 590.404 169.534 596.076 168.401Z" fill="#6C63FF"/>
<path d="M277.729 424.522L328.795 416.132L449.828 289.372L472.295 265.837L483.206 254.402C454.76 239.366 362.897 288.75 362.897 288.75C361.367 290.743 361.345 293.505 362.064 296.394C363.417 301.801 367.371 307.632 368.859 309.715C369.219 310.227 369.43 310.494 369.43 310.494L277.729 424.522Z" fill="#3F3D56"/>
</g>
<defs>
<clipPath id="clip0_1:2">
<rect width="613" height="388" fill="white" transform="matrix(-0.976948 0.213477 0.213477 0.976948 598.869 0)"/>
</clipPath>
</defs>
</svg>
